<?xml version="1.0" encoding="utf-8"?>
<!-- Generator: Adobe Illustrator 16.2.0, SVG Export Plug-In . SVG Version: 6.00 Build 0)  -->
<!DOCTYPE svg PUBLIC "-//W3C//DTD SVG 1.1//EN" "http://www.w3.org/Graphics/SVG/1.1/DTD/svg11.dtd">
<svg version="1.1" id="Capa_1" xmlns="http://www.w3.org/2000/svg" xmlns:xlink="http://www.w3.org/1999/xlink" x="0px" y="0px"
	 width="25px" height="20.308px" viewBox="0 2.347 25 20.308" enable-background="new 0 2.347 25 20.308" xml:space="preserve">
<g>
	<g>
		<path fill="#010002" d="M25,4.749c-0.92,0.408-1.907,0.684-2.945,0.808c1.06-0.634,1.871-1.64,2.255-2.835
			c-0.993,0.587-2.091,1.014-3.259,1.245c-0.936-0.998-2.267-1.62-3.743-1.62c-2.832,0-5.129,2.296-5.129,5.127
			c0,0.401,0.045,0.793,0.133,1.168C8.05,8.428,4.271,6.386,1.742,3.284C1.3,4.04,1.048,4.921,1.048,5.861
			c0,1.779,0.906,3.35,2.281,4.268c-0.84-0.028-1.631-0.259-2.323-0.644V9.55c0,2.484,1.769,4.557,4.113,5.028
			c-0.429,0.116-0.882,0.18-1.351,0.18c-0.331,0-0.651-0.032-0.965-0.095c0.653,2.038,2.546,3.521,4.79,3.562
			c-1.754,1.375-3.966,2.191-6.369,2.191c-0.414,0-0.822-0.024-1.223-0.07c2.27,1.458,4.965,2.309,7.861,2.309
			c9.434,0,14.591-7.814,14.591-14.592l-0.017-0.664C23.442,6.68,24.314,5.777,25,4.749z"/>
	</g>
</g>
</svg>
