<?xml version="1.0" encoding="utf-8"?>
<!-- Generator: Adobe Illustrator 16.2.0, SVG Export Plug-In . SVG Version: 6.00 Build 0)  -->
<!DOCTYPE svg PUBLIC "-//W3C//DTD SVG 1.1//EN" "http://www.w3.org/Graphics/SVG/1.1/DTD/svg11.dtd">
<svg version="1.1" id="Capa_1" xmlns="http://www.w3.org/2000/svg" xmlns:xlink="http://www.w3.org/1999/xlink" x="0px" y="0px"
	 width="51.379px" height="96.123px" viewBox="0 0 51.379 96.123" enable-background="new 0 0 51.379 96.123" xml:space="preserve">
<g>
	<path d="M49.716,0.02L37.252,0C23.247,0,14.197,9.285,14.197,23.656v10.907H1.664c-1.083,0-1.96,0.878-1.96,1.961v15.803
		c0,1.083,0.878,1.96,1.96,1.96h12.533v39.876c0,1.083,0.877,1.96,1.959,1.96H32.51c1.082,0,1.959-0.878,1.959-1.96V54.287h14.654
		c1.084,0,1.961-0.877,1.961-1.96l0.006-15.803c0-0.52-0.207-1.018-0.574-1.386c-0.367-0.368-0.867-0.575-1.387-0.575h-14.66v-9.246
		c0-4.444,1.061-6.7,6.85-6.7l8.396-0.003c1.082,0,1.959-0.878,1.959-1.96V1.98C51.673,0.899,50.796,0.022,49.716,0.02z"/>
</g>
</svg>
